# xmcd CD database file
#
# Track frame offsets:
#	150
#	19479
#	23574
#	43602
#	82619
#	97089
#	116483
#	135900
#
# Disc length: 2069 seconds
#
# Revision: 0
# Processed by: cddbd v1.4PL0 Copyright (c) Steve Scherf et al.
# Submitted via: CDex 1.50beta9
#
DISCID=55081308
DTITLE=gerry mulligan - the age of steam
DYEAR=1900
DGENRE=Jazz
TTITLE0=Pista01
TTITLE1=Pista02
TTITLE2=Pista03
TTITLE3=Pista04
TTITLE4=Pista05
TTITLE5=The Age Of Steam - 06 - A Weed in Disneyland
TTITLE6=The Age Of Steam - 07 - Golden Notebooks
TTITLE7=The Age Of Steam - 08 - Maytag
EXTD=
EXTT0=
EXTT1=
EXTT2=
EXTT3=
EXTT4=
EXTT5=
EXTT6=
EXTT7=
PLAYORDER=
